<?xml version="1.0" encoding="utf-8"?>
<!-- Generator: Adobe Illustrator 27.0.1, SVG Export Plug-In . SVG Version: 6.00 Build 0)  -->
<svg version="1.1" xmlns="http://www.w3.org/2000/svg" xmlns:xlink="http://www.w3.org/1999/xlink" x="0px" y="0px"
	 viewBox="0 0 2664 1780" style="enable-background:new 0 0 2664 1780;" xml:space="preserve">
<style type="text/css">
	.st0{fill:url(#SVGID_1_);}
	.st1{fill:#1B3F92;}
	.st2{fill:#FFFFFF;}
	.st3{display:none;fill:#FFFFFF;}
	.st4{display:none;}
	.st5{display:inline;fill:#1B3F92;}
	.st6{display:inline;fill:#FFFFFF;}
</style>
<g id="ëÎÓÈ_1">
	<radialGradient id="SVGID_1_" cx="1301.9852" cy="217.1789" r="1696.5825" gradientUnits="userSpaceOnUse">
		<stop  offset="0" style="stop-color:#FEF140"/>
		<stop  offset="0.3957" style="stop-color:#FE2E72"/>
		<stop  offset="0.8807" style="stop-color:#2870F6"/>
		<stop  offset="1" style="stop-color:#62A9F7"/>
	</radialGradient>
	<path class="st0" d="M2359.8,886.9L2359.8,886.9c-7.2,0-11.1,0-13.1,0.1l-2,0c-0.3,0-0.5,0-0.8,0h-0.1c0,0,0,0,0,0
		c-2.4,0.1-4.5,0.8-6.4,1.7c1.9-1,4.1-1.6,6.4-1.7c-1.9,0-12.2,0.1-15.6,0.1c-60.5,0.3-110.8,46.2-117.1,107
		c-3.5,34.4-30,47.4-54.5,45c-24.2-2.4-48.7-20.3-45.5-53.9c5.4-55.5,5-111.8-1-167.2c-2.3-20.8-14.5-39.4-32.7-49.8
		c-17.9-10.3-39-11.4-57.7-3.1c-25.4,11.3-40.4,37.3-37.3,64.9c14.6,131.5-9.7,262.5-70,379.1c-9.9,19.1-27.5,11.3-30.9,9.6
		c-2.1-1.1-20.5-11.2-10.5-30.6c110.9-214.4,85.2-474.1-65.6-661.8c-10.9-13.6-26.5-19.9-42.8-17.5c-17.4,2.6-32.8,14.9-39.2,31.3
		c-6,15.4-3.2,32,7.7,45.5c84.7,105.3,124.6,235.9,112.3,367.7c-12.4,132.5-76.6,254.1-180.8,342.4c-8.7,7.4-15.7,0.6-17.7-1.6
		c-1.9-2.3-7.6-10.2,1.2-17.6c95.9-81.3,152-199.3,162.1-341.3c0.9-12.2-3.4-24.2-11.8-33.1c-8.3-8.9-20.1-13.9-32.2-13.9h-0.2
		l-29.4,0.5c-20.5,0.4-37.6,16.7-38.7,37.2c-5.5,96.8-48.1,187-119.9,254.1c-71.9,67.2-165.7,104.3-264.2,104.3
		c-68.5,0-135.7-18.2-194.3-52.8c-56.9-33.5-104.4-81.4-137.3-138.5c-4.2-7.3-13.5-9.8-20.8-5.6c-7.3,4.2-9.8,13.4-5.6,20.7
		c35.5,61.6,86.8,113.3,148.2,149.5c63.3,37.3,135.8,57,209.8,57c106.2,0,207.5-40,285-112.5c77.5-72.4,123.5-169.9,129.5-274.5
		c0.3-4.8,4.1-8.5,8.9-8.6l29.1-0.5c3.8,0,7.3,1.5,9.9,4.3c2.6,2.8,3.9,6.5,3.7,10.3c-4.6,64.7-19.2,124.3-43.3,177.1
		c-25.6,56-62,104.2-108.1,143.3c-21.2,18-18.2,44.5-4.6,60.4c8,9.3,20.2,15.6,33.1,15.6c9.2,0,18.7-3.1,27.4-10.5
		c110.3-93.4,178.2-222.2,191.3-362.7c13-139.7-29.2-278-118.9-389.4c-4.1-5.1-5.1-10.3-3.1-15.6c2.5-6.3,8.8-11.4,15.5-12.4
		c5.5-0.8,10.3,1.3,14.4,6.4c143.3,178.4,167.7,425.2,62.3,629c-7.3,14.1-8.3,29.4-2.8,43c4.8,12,14.2,22.1,26.4,28.3
		c12.2,6.3,25.9,8,38.4,4.9c14.3-3.6,26.2-13.3,33.5-27.5c63.1-121.8,88.5-258.9,73.3-396.3c-1.6-14.4,6.2-28,19.5-33.9
		c9.8-4.3,20.7-3.7,30.2,1.7c9.9,5.7,16.4,15.5,17.6,26.8c5.8,53.4,6.2,107.6,1,161c-5,51.8,32.8,83,72.8,86.9
		c20.7,2,40.8-3.1,56.5-14.5c12.5-9.1,28.1-26.5,31.3-57.5c4.7-45.3,42-79.6,86.9-79.8c7.6,0,11.7-0.1,13.8-0.1l2.1,0
		c0.3,0,0.5,0,0.8,0h0.1c2.9-0.2,5.4-1,7.4-2.3c-2.2,1.4-4.7,2.2-7.4,2.3c1.8,0,11.5-0.1,14.8-0.1c8.4,0,15.2-6.9,15.2-15.2
		C2375,893.7,2368.2,886.9,2359.8,886.9z M2359.8,886.9L2359.8,886.9c-7.2,0-11.1,0-13.1,0.1l-2,0c-0.3,0-0.5,0-0.8,0h-0.1
		c0,0,0,0,0,0c-2.4,0.1-4.5,0.8-6.4,1.7c1.9-1,4.1-1.6,6.4-1.7c-1.9,0-12.2,0.1-15.6,0.1c-60.5,0.3-110.8,46.2-117.1,107
		c-3.5,34.4-30,47.4-54.5,45c-24.2-2.4-48.7-20.3-45.5-53.9c5.4-55.5,5-111.8-1-167.2c-2.3-20.8-14.5-39.4-32.7-49.8
		c-17.9-10.3-39-11.4-57.7-3.1c-25.4,11.3-40.4,37.3-37.3,64.9c14.6,131.5-9.7,262.5-70,379.1c-9.9,19.1-27.5,11.3-30.9,9.6
		c-2.1-1.1-20.5-11.2-10.5-30.6c110.9-214.4,85.2-474.1-65.6-661.8c-10.9-13.6-26.5-19.9-42.8-17.5c-17.4,2.6-32.8,14.9-39.2,31.3
		c-6,15.4-3.2,32,7.7,45.5c84.7,105.3,124.6,235.9,112.3,367.7c-12.4,132.5-76.6,254.1-180.8,342.4c-8.7,7.4-15.7,0.6-17.7-1.6
		c-1.9-2.3-7.6-10.2,1.2-17.6c95.9-81.3,152-199.3,162.1-341.3c0.9-12.2-3.4-24.2-11.8-33.1c-8.3-8.9-20.1-13.9-32.2-13.9h-0.2
		l-29.4,0.5c-20.5,0.4-37.6,16.7-38.7,37.2c-5.5,96.8-48.1,187-119.9,254.1c-71.9,67.2-165.7,104.3-264.2,104.3
		c-68.5,0-135.7-18.2-194.3-52.8c-56.9-33.5-104.4-81.4-137.3-138.5c-4.2-7.3-13.5-9.8-20.8-5.6c-7.3,4.2-9.8,13.4-5.6,20.7
		c35.5,61.6,86.8,113.3,148.2,149.5c63.3,37.3,135.8,57,209.8,57c106.2,0,207.5-40,285-112.5c77.5-72.4,123.5-169.9,129.5-274.5
		c0.3-4.8,4.1-8.5,8.9-8.6l29.1-0.5c3.8,0,7.3,1.5,9.9,4.3c2.6,2.8,3.9,6.5,3.7,10.3c-4.6,64.7-19.2,124.3-43.3,177.1
		c-25.6,56-62,104.2-108.1,143.3c-21.2,18-18.2,44.5-4.6,60.4c8,9.3,20.2,15.6,33.1,15.6c9.2,0,18.7-3.1,27.4-10.5
		c110.3-93.4,178.2-222.2,191.3-362.7c13-139.7-29.2-278-118.9-389.4c-4.1-5.1-5.1-10.3-3.1-15.6c2.5-6.3,8.8-11.4,15.5-12.4
		c5.5-0.8,10.3,1.3,14.4,6.4c143.3,178.4,167.7,425.2,62.3,629c-7.3,14.1-8.3,29.4-2.8,43c4.8,12,14.2,22.1,26.4,28.3
		c12.2,6.3,25.9,8,38.4,4.9c14.3-3.6,26.2-13.3,33.5-27.5c63.1-121.8,88.5-258.9,73.3-396.3c-1.6-14.4,6.2-28,19.5-33.9
		c9.8-4.3,20.7-3.7,30.2,1.7c9.9,5.7,16.4,15.5,17.6,26.8c5.8,53.4,6.2,107.6,1,161c-5,51.8,32.8,83,72.8,86.9
		c20.7,2,40.8-3.1,56.5-14.5c12.5-9.1,28.1-26.5,31.3-57.5c4.7-45.3,42-79.6,86.9-79.8c7.6,0,11.7-0.1,13.8-0.1l2.1,0
		c0.3,0,0.5,0,0.8,0h0.1c2.9-0.2,5.4-1,7.4-2.3c-2.2,1.4-4.7,2.2-7.4,2.3c1.8,0,11.5-0.1,14.8-0.1c8.4,0,15.2-6.9,15.2-15.2
		C2375,893.7,2368.2,886.9,2359.8,886.9z M2359.8,886.9L2359.8,886.9c-7.2,0-11.1,0-13.1,0.1l-2,0c-0.3,0-0.5,0-0.8,0h-0.1
		c0,0,0,0,0,0c-2.4,0.1-4.5,0.8-6.4,1.7c1.9-1,4.1-1.6,6.4-1.7c-1.9,0-12.2,0.1-15.6,0.1c-60.5,0.3-110.8,46.2-117.1,107
		c-3.5,34.4-30,47.4-54.5,45c-24.2-2.4-48.7-20.3-45.5-53.9c5.4-55.5,5-111.8-1-167.2c-2.3-20.8-14.5-39.4-32.7-49.8
		c-17.9-10.3-39-11.4-57.7-3.1c-25.4,11.3-40.4,37.3-37.3,64.9c14.6,131.5-9.7,262.5-70,379.1c-9.9,19.1-27.5,11.3-30.9,9.6
		c-2.1-1.1-20.5-11.2-10.5-30.6c110.9-214.4,85.2-474.1-65.6-661.8c-10.9-13.6-26.5-19.9-42.8-17.5c-17.4,2.6-32.8,14.9-39.2,31.3
		c-6,15.4-3.2,32,7.7,45.5c84.7,105.3,124.6,235.9,112.3,367.7c-12.4,132.5-76.6,254.1-180.8,342.4c-8.7,7.4-15.7,0.6-17.7-1.6
		c-1.9-2.3-7.6-10.2,1.2-17.6c95.9-81.3,152-199.3,162.1-341.3c0.9-12.2-3.4-24.2-11.8-33.1c-8.3-8.9-20.1-13.9-32.2-13.9h-0.2
		l-29.4,0.5c-20.5,0.4-37.6,16.7-38.7,37.2c-5.5,96.8-48.1,187-119.9,254.1c-71.9,67.2-165.7,104.3-264.2,104.3
		c-68.5,0-135.7-18.2-194.3-52.8c-56.9-33.5-104.4-81.4-137.3-138.5c-4.2-7.3-13.5-9.8-20.8-5.6c-7.3,4.2-9.8,13.4-5.6,20.7
		c35.5,61.6,86.8,113.3,148.2,149.5c63.3,37.3,135.8,57,209.8,57c106.2,0,207.5-40,285-112.5c77.5-72.4,123.5-169.9,129.5-274.5
		c0.3-4.8,4.1-8.5,8.9-8.6l29.1-0.5c3.8,0,7.3,1.5,9.9,4.3c2.6,2.8,3.9,6.5,3.7,10.3c-4.6,64.7-19.2,124.3-43.3,177.1
		c-25.6,56-62,104.2-108.1,143.3c-21.2,18-18.2,44.5-4.6,60.4c8,9.3,20.2,15.6,33.1,15.6c9.2,0,18.7-3.1,27.4-10.5
		c110.3-93.4,178.2-222.2,191.3-362.7c13-139.7-29.2-278-118.9-389.4c-4.1-5.1-5.1-10.3-3.1-15.6c2.5-6.3,8.8-11.4,15.5-12.4
		c5.5-0.8,10.3,1.3,14.4,6.4c143.3,178.4,167.7,425.2,62.3,629c-7.3,14.1-8.3,29.4-2.8,43c4.8,12,14.2,22.1,26.4,28.3
		c12.2,6.3,25.9,8,38.4,4.9c14.3-3.6,26.2-13.3,33.5-27.5c63.1-121.8,88.5-258.9,73.3-396.3c-1.6-14.4,6.2-28,19.5-33.9
		c9.8-4.3,20.7-3.7,30.2,1.7c9.9,5.7,16.4,15.5,17.6,26.8c5.8,53.4,6.2,107.6,1,161c-5,51.8,32.8,83,72.8,86.9
		c20.7,2,40.8-3.1,56.5-14.5c12.5-9.1,28.1-26.5,31.3-57.5c4.7-45.3,42-79.6,86.9-79.8c7.6,0,11.7-0.1,13.8-0.1l2.1,0
		c0.3,0,0.5,0,0.8,0h0.1c2.9-0.2,5.4-1,7.4-2.3c-2.2,1.4-4.7,2.2-7.4,2.3c1.8,0,11.5-0.1,14.8-0.1c8.4,0,15.2-6.9,15.2-15.2
		C2375,893.7,2368.2,886.9,2359.8,886.9z M2359.8,886.9L2359.8,886.9c-7.2,0-11.1,0-13.1,0.1l-2,0c-0.3,0-0.5,0-0.8,0h-0.1
		c0,0,0,0,0,0c-2.4,0.1-4.5,0.8-6.4,1.7c1.9-1,4.1-1.6,6.4-1.7c-1.9,0-12.2,0.1-15.6,0.1c-60.5,0.3-110.8,46.2-117.1,107
		c-3.5,34.4-30,47.4-54.5,45c-24.2-2.4-48.7-20.3-45.5-53.9c5.4-55.5,5-111.8-1-167.2c-2.3-20.8-14.5-39.4-32.7-49.8
		c-17.9-10.3-39-11.4-57.7-3.1c-25.4,11.3-40.4,37.3-37.3,64.9c14.6,131.5-9.7,262.5-70,379.1c-9.9,19.1-27.5,11.3-30.9,9.6
		c-2.1-1.1-20.5-11.2-10.5-30.6c110.9-214.4,85.2-474.1-65.6-661.8c-10.9-13.6-26.5-19.9-42.8-17.5c-17.4,2.6-32.8,14.9-39.2,31.3
		c-6,15.4-3.2,32,7.7,45.5c84.7,105.3,124.6,235.9,112.3,367.7c-12.4,132.5-76.6,254.1-180.8,342.4c-8.7,7.4-15.7,0.6-17.7-1.6
		c-1.9-2.3-7.6-10.2,1.2-17.6c95.9-81.3,152-199.3,162.1-341.3c0.9-12.2-3.4-24.2-11.8-33.1c-8.3-8.9-20.1-13.9-32.2-13.9h-0.2
		l-29.4,0.5c-20.5,0.4-37.6,16.7-38.7,37.2c-5.5,96.8-48.1,187-119.9,254.1c-71.9,67.2-165.7,104.3-264.2,104.3
		c-68.5,0-135.7-18.2-194.3-52.8c-56.9-33.5-104.4-81.4-137.3-138.5c-4.2-7.3-13.5-9.8-20.8-5.6c-7.3,4.2-9.8,13.4-5.6,20.7
		c35.5,61.6,86.8,113.3,148.2,149.5c63.3,37.3,135.8,57,209.8,57c106.2,0,207.5-40,285-112.5c77.5-72.4,123.5-169.9,129.5-274.5
		c0.3-4.8,4.1-8.5,8.9-8.6l29.1-0.5c3.8,0,7.3,1.5,9.9,4.3c2.6,2.8,3.9,6.5,3.7,10.3c-4.6,64.7-19.2,124.3-43.3,177.1
		c-25.6,56-62,104.2-108.1,143.3c-21.2,18-18.2,44.5-4.6,60.4c8,9.3,20.2,15.6,33.1,15.6c9.2,0,18.7-3.1,27.4-10.5
		c110.3-93.4,178.2-222.2,191.3-362.7c13-139.7-29.2-278-118.9-389.4c-4.1-5.1-5.1-10.3-3.1-15.6c2.5-6.3,8.8-11.4,15.5-12.4
		c5.5-0.8,10.3,1.3,14.4,6.4c143.3,178.4,167.7,425.2,62.3,629c-7.3,14.1-8.3,29.4-2.8,43c4.8,12,14.2,22.1,26.4,28.3
		c12.2,6.3,25.9,8,38.4,4.9c14.3-3.6,26.2-13.3,33.5-27.5c63.1-121.8,88.5-258.9,73.3-396.3c-1.6-14.4,6.2-28,19.5-33.9
		c9.8-4.3,20.7-3.7,30.2,1.7c9.9,5.7,16.4,15.5,17.6,26.8c5.8,53.4,6.2,107.6,1,161c-5,51.8,32.8,83,72.8,86.9
		c20.7,2,40.8-3.1,56.5-14.5c12.5-9.1,28.1-26.5,31.3-57.5c4.7-45.3,42-79.6,86.9-79.8c7.6,0,11.7-0.1,13.8-0.1l2.1,0
		c0.3,0,0.5,0,0.8,0h0.1c2.9-0.2,5.4-1,7.4-2.3c-2.2,1.4-4.7,2.2-7.4,2.3c1.8,0,11.5-0.1,14.8-0.1c8.4,0,15.2-6.9,15.2-15.2
		C2375,893.7,2368.2,886.9,2359.8,886.9z M1673.1,699.9c-35.5-61.6-86.7-113.3-148.1-149.5c-63.2-37.3-135.7-57-209.6-57
		c-106.1,0-207.3,40-284.8,112.5c-77.4,72.4-123.4,169.9-129.3,274.5c-0.3,4.8-4.1,8.5-8.9,8.6l-29.1,0.5c-3.8,0-7.3-1.5-9.9-4.3
		c-2.6-2.8-3.9-6.5-3.7-10.3c4.6-64.7,19.2-124.3,43.3-177.1c25.6-56,61.9-104.2,108-143.3c21.2-18,18.2-44.5,4.6-60.4
		c-13.6-15.9-39.4-23-60.5-5.1C835,582.6,767.1,711.4,754,851.8c-13,139.7,29.2,278,118.8,389.4c4.1,5.1,5.1,10.3,3.1,15.6
		c-2.5,6.3-8.8,11.4-15.4,12.4c-5.5,0.8-10.3-1.3-14.4-6.4c-143.1-178.4-167.5-425.2-62.2-629c7.3-14.1,8.3-29.4,2.8-43
		c-4.8-12-14.2-22.1-26.4-28.3c-12.2-6.3-25.8-8-38.4-4.9c-14.2,3.6-26.1,13.3-33.5,27.5c-63.1,121.8-88.4,258.9-73.2,396.3
		c1.6,14.4-6.2,28-19.4,33.9c-9.7,4.3-20.7,3.7-30.1-1.7c-9.9-5.7-16.3-15.5-17.6-26.8c-5.8-53.4-6.2-107.6-1-161
		c5-51.8-32.8-83-72.7-86.9c-20.7-2-40.8,3.1-56.5,14.5c-12.5,9.1-28.1,26.5-31.3,57.5c-4.7,45.3-42,79.6-86.8,79.8
		c-7.6,0-11.6,0-13.8,0.1l-2.1,0c-0.3,0-0.5,0-0.8,0h-0.1c0,0,0,0,0,0c-3.7,0.2-6.7,1.5-9.1,3.5c2.5-2.1,5.6-3.4,9.1-3.5
		c-1.8,0-11.5,0.1-14.8,0.1c-8.4,0-15.2,6.9-15.1,15.2c0,8.4,6.8,15.1,15.2,15.1h0.1c7.1,0,11,0,13-0.1l2,0c0.3,0,0.5,0,0.8,0h0.1
		c2-0.1,3.8-0.6,5.5-1.3c-1.7,0.8-3.5,1.2-5.5,1.3c1.9,0,12.2-0.1,15.7-0.1c60.4-0.3,110.7-46.2,117-107c3.5-34.4,29.9-47.4,54.5-45
		c24.2,2.4,48.7,20.3,45.4,53.9c-5.4,55.5-5,111.8,1,167.2c2.3,20.8,14.5,39.4,32.7,49.8c17.9,10.3,39,11.4,57.7,3.1
		c25.4-11.3,40.3-37.3,37.3-64.9c-14.5-131.5,9.7-262.5,70-379.1c9.9-19.1,27.4-11.3,30.9-9.6c2.1,1.1,20.5,11.2,10.5,30.6
		c-110.8,214.3-85.1,474.1,65.5,661.8c9.4,11.7,22.2,18,35.9,18c2.3,0,4.6-0.2,6.9-0.5c17.4-2.6,32.8-14.9,39.2-31.3
		c6-15.4,3.2-32-7.7-45.5C811.9,1117.1,772,986.5,784.3,854.7c12.3-132.5,76.5-254.2,180.6-342.4c8.7-7.4,15.7-0.6,17.6,1.6
		c1.9,2.3,7.6,10.2-1.2,17.6c-95.8,81.3-151.8,199.3-161.9,341.3c-0.9,12.2,3.4,24.2,11.8,33.1c8.3,8.9,20,13.9,32.2,13.9h0.2
		l29.4-0.5c20.5-0.4,37.5-16.7,38.7-37.2c5.5-96.8,48.1-187,119.8-254.1c71.9-67.2,165.6-104.3,264-104.3
		c68.4,0,135.5,18.2,194.1,52.8c56.9,33.5,104.3,81.4,137.2,138.5c4.2,7.3,13.5,9.8,20.8,5.6
		C1674.8,716.4,1677.3,707.1,1673.1,699.9z M1314,789.3c-63.3,0-114.7,51.3-114.7,114.7c0,63.3,51.3,114.7,114.7,114.7
		c63.3,0,114.7-51.3,114.7-114.7C1428.7,840.7,1377.3,789.3,1314,789.3z M1314,863.4c-44,0-79.7,35.1-79.7,4.2
		c0-30.9,35.7-60.1,79.7-60.1s79.7,29.2,79.7,60.1C1393.7,898.5,1358,863.4,1314,863.4z M1314,789.3c-63.3,0-114.7,51.3-114.7,114.7
		c0,63.3,51.3,114.7,114.7,114.7c63.3,0,114.7-51.3,114.7-114.7C1428.7,840.7,1377.3,789.3,1314,789.3z M1314,863.4
		c-44,0-79.7,35.1-79.7,4.2c0-30.9,35.7-60.1,79.7-60.1s79.7,29.2,79.7,60.1C1393.7,898.5,1358,863.4,1314,863.4z M1543.3,674.7
		c-61.2-61.2-142.7-95-229.3-95c-86.6,0-168,33.7-229.3,95c-61.2,61.2-95,142.7-95,229.3c0,86.6,33.7,168,95,229.3
		c61.2,61.2,142.7,95,229.3,95c86.6,0,168-33.7,229.3-95c61.2-61.2,95-142.7,95-229.3C1638.2,817.4,1604.5,736,1543.3,674.7z
		 M1505.5,1095.5c-51.2,51.1-119.2,79.3-191.5,79.3c-72.3,0-140.3-28.2-191.5-79.3c-51.1-51.2-79.3-119.1-79.3-191.5
		c0-72.3,28.2-140.3,79.3-191.5c51.2-51.1,119.1-79.3,191.5-79.3c72.3,0,140.3,28.2,191.5,79.3c51.1,51.2,79.3,119.1,79.3,191.5
		C1584.8,976.3,1556.6,1044.3,1505.5,1095.5z M1314,789.3c-63.3,0-114.7,51.3-114.7,114.7c0,63.3,51.3,114.7,114.7,114.7
		c63.3,0,114.7-51.3,114.7-114.7C1428.7,840.7,1377.3,789.3,1314,789.3z M1314,863.4c-44,0-79.7,35.1-79.7,4.2
		c0-30.9,35.7-60.1,79.7-60.1s79.7,29.2,79.7,60.1C1393.7,898.5,1358,863.4,1314,863.4z"/>
</g>
<g id="Laag_2">
	
		<g id="g4296_00000065037827916071607100000014601280236813830812_" transform="matrix(0.92934516,0,0,0.92934516,-38.945319,21.1781)">
		<path id="path4813-6_00000093137219652101094800000007336777687200362399_" class="st1" d="M1443.5,213.9c-2.6,0-4.3,2.1-4.6,4.6
			l-3.6,25.6h-9.7c-2.6,0-4.6,2.1-4.6,4.6v9.7c0,2.6,2.1,4.6,4.6,4.6h7l-1.5,10.5c-0.4,2.5,2.1,4.6,4.6,4.6h3.3v6.2h-7
			c-2.6,0-4.6,1.9-4.6,4.3V300c-3.7,1.3-6.2,4.8-6.2,8.7c0,3.9,2.5,7.4,6.2,8.7v7.4c-3.7,1.3-6.2,4.8-6.2,8.7c0,3.9,2.5,7.4,6.2,8.7
			v22.1c0,2.4,2.1,4.3,4.6,4.3h5.2l-13.6,244.2c-7.8,12-24.8,28.2-62.4,40.2c-67.5,21.6-110.7,71.6-110.7,118.8s15.6,70,15.6,86.2
			c0,16.2-11.6,15.3-9.1,23.5c2.5,8.2,67.4-12.4,52.1,101.9c-14.6,109.5-68.7,70.9-74,79c-5.3,8.1,8.1,11.9,8.1,24.1
			c0,26.5-48,86.2-48,172.7c0,67.4,27.9,180.1,243.3,184.8v28.9c0,8.2,5.3,14.8,11.8,14.8c6.5,0,11.8-6.6,11.8-14.8v-28.8
			c219.2-3.3,247.4-117,247.4-184.9c0-86.5-48-146.2-48-172.7c0-12.2,13.4-16,8.1-24.1c-5.3-8.1-59.4,30.5-74-79
			c-15.3-114.3,49.7-93.7,52.1-101.9c2.5-8.2-9.1-7.3-9.1-23.5c0-16.2,15.6-38.9,15.6-86.2s-43.2-97.2-110.7-118.8
			c-37.6-12-54.6-28.2-62.4-40.2l-13.6-244.2h5.2c2.6,0,4.6-1.9,4.6-4.3v-22.1c3.7-1.3,6.2-4.8,6.2-8.7c0-3.9-2.5-7.4-6.2-8.7v-7.4
			c3.7-1.3,6.2-4.8,6.2-8.7c0-3.9-2.5-7.4-6.2-8.7v-11.2c0-2.4-2.1-4.3-4.6-4.3h-7v-6.2h3.3c2.6,0,5-2.1,4.6-4.6l-1.5-10.5h7
			c2.6,0,4.6-2.1,4.6-4.6v-9.7c0-2.6-2.1-4.6-4.6-4.6h-9.7l-3.6-25.6c-0.4-2.5-2.1-4.6-4.6-4.6H1443.5z"/>
		<path id="path4145-2_00000165219420916152283840000016941995429921982390_" class="st2" d="M1532.8,946.8
			c24.7,0,28.2,33.2,30.6,87.7c3.8,86.1,26.6,86.7,27.9,86.7c1.3,0,11.6-9.1,11.6-10.6c0-1.6-10-0.6-10-9.6c0-6.9,5.5-11.6,11-11.6
			c5.5,0,11.6,4.6,11.6,12c0,8.6-7.5,21.3-21.3,21.3c-22.8,0-41.2-29.2-43.8-82.7c-1.4-28.8-1.7-48.5-2.3-62.1
			c-1-22.2-11.6-29.5-13-29.5c-1.3,0-9,6.9-9,8c0,1.1,4,2.4,4,7.8c0,3.5-3.7,6.4-7.6,6.4c-3.9,0-7.3-3.5-7.3-8
			C1515.2,954.6,1523.5,946.8,1532.8,946.8z"/>
		<path id="path4147-3_00000114793276718217013700000002004590847385245842_" class="st2" d="M1372.1,946.8
			c-24.7,0-28.2,33.2-30.6,87.7c-3.8,86.1-26.6,86.7-27.9,86.7c-1.3,0-11.6-9.1-11.6-10.6c0-1.6,10-0.6,10-9.6
			c0-6.9-5.5-11.6-11-11.6c-5.5,0-11.6,4.6-11.6,12c0,8.6,7.5,21.3,21.3,21.3c22.7,0,41.2-29.2,43.8-82.7
			c1.4-28.8,1.7-48.5,2.3-62.1c1-22.2,11.6-29.5,13-29.5c1.3,0,9,6.9,9,8c0,1.1-4,2.4-4,7.8c0,3.5,3.7,6.4,7.6,6.4
			c3.9,0,7.3-3.5,7.3-8C1389.7,954.6,1381.4,946.8,1372.1,946.8z"/>
		<path id="rect4153-7_00000046323883199668090320000006291430279768000660_" class="st2" d="M1402.8,1026.3h99.2
			c3.5,0,6.3,2.8,6.3,6.3s-2.8,6.3-6.3,6.3h-99.2c-3.5,0-6.3-2.8-6.3-6.3S1399.3,1026.3,1402.8,1026.3z"/>
		<path id="path4161-9_00000137821903288259661750000012171522748694911631_" class="st3" d="M1471.4,1409.4
			c-1-10.4-8.6-78.5-5.7-112.3c1.4-16.4,9.2-41,13-50.8c3.9-9.8,10-33.1,10.6-45c0.6-11.9,0.1-25.9,0.1-25.9s-10.3,2.3-20.4,3.1
			c-10.1,0.8-12.6,0.8-18.9,0.8c-6.3,0-8.8,0-18.9-0.8c-10.1-0.8-20.4-3.1-20.4-3.1s-0.5,14,0.1,25.9c0.6,11.9,6.8,35.2,10.6,45
			c3.9,9.8,11.6,34.4,13,50.8c2.9,33.8-4.7,101.9-5.7,112.3c-1,10.4,11.3,23.3,21.2,23.3C1460,1432.7,1472.3,1419.8,1471.4,1409.4
			L1471.4,1409.4z"/>
	</g>
	<polygon class="st2" points="689,1313 1859,1205 1906,1141 1889.5,1346.7 1025,1497 	"/>
	
		<g id="g4240-2-6_00000096046875479358061640000014366256168997634445_" transform="matrix(-0.54169917,0.20220957,0.20220957,0.54169917,392.3118,121.65254)">
		<path id="path4765-3-7-7_00000150812008172611919280000014418074328745400721_" class="st1" d="M-818.9,1045.3
			c-13.8-0.1-24.9,0.6-25,2.9c-0.2,5.8,28.6,15.5,91.2,41.9c61.3,27.3,117.8,53.7,180,85.2c20.9,12.4,45,30.9,49.3,72.7
			c-4.6,1.3-9.8,2.8-12.5,3.5c-4.8,1.1-4.9,2.9-5.1,11c-1.2,43.3-5.2,200.7-5.4,275.9c0,10.9,4.4,18.4,14.2,22.1
			c-0.6,18.1-1.3,37.1-1.9,55.9c-9.1,2.8-15.4,12.1-15.4,22.7c0,9.9,5.6,18.8,13.9,22.1c-2.3,67.3-4.5,132.8-6.7,197
			c-5.4,0.1-15.1,0.3-21.2,0.6c-8.1,0.4-9.9,3.3-10.3,12.5c-0.4,9.2-1.1,26.5-1.5,35.3c-0.4,8.8,3.7,14.3,8.8,15.1
			c4,0.6,15.9,1.8,21.9,2.4c-3.1,91.2-5.6,167.4-6.5,199c-4.9,1.2-27.6,5.9-38.9,9.1c-12.9,3.7-8.8,33.1-6.2,47.8
			c2.6,14.7,22.7,57.4,33.4,54c10.6-3.3,33.4-11.3,33.4-11.3c24.9,36.7,64.5,49.9,95.4,49.9c69,0,119.2-59.1,122.1-128.3
			c1.9-44.2-1.2-95,7.8-159.8c10.8-78.4,21.7-124.8,51.2-157.6c37.3-41.6,67.5-13.1,69.4-17.8c1.9-4.7-182.9-128.8-185.8-123.4
			c-2.9,5.4,37.4,23.2,5.3,72.7c-9.3,14.3-17.2,31.9-23.2,51.3c-17.4-4.2-35.5-13.8-35.9-24.4c-1.1-32.9-2.1-62.6,0.9-95.9
			c0.6-6.7,15.8-20.6,15.8-31.6c0-11-9.2-22.4-21.3-23.9c-7.9-1-17.1-2.4-23.8-3.5c0-0.4,0-0.8,0-1.3c0.6-45.6,0.7-89.4,0.6-129.8
			c2.3,0,5-0.5,6-2.5c1.8-3.7,7.7-23.5,10.3-32c2.6-8.5-2.2-14.3-5.5-16.5c-2.2-1.5-7.6-2.3-11-2.6c-0.5-72.7-1.5-125.8-1.6-138.1
			c0-10.5-23,5-23.1-3.3c-0.1-8.7-0.3-15.4-0.4-19.9c-0.1-5,32-6.2,31.7-14.3c-0.2-8.1-33-7-33.4-10.6c-0.6-5.6-1.3-10.9-2-16.9
			c-2.3-20.8,16.4-16.9,5.1-55.4c-8.7-29.6-40.7-44.4-59.5-53.8c-8.2-4.1-36.6-14.5-58.5-23.1c-18.5-7.2-10.6,11.8-17.9,9.1
			c-85.1-31.4-74.4-41.2-104.6-55.4c-31.3-14.7-50.2-16.3-50.2-16.3S-795.9,1045.4-818.9,1045.3L-818.9,1045.3z M-416.4,1845.1
			c7.2,0.7,19.2,6.2,19.2,6.2c-10.4,48-12.9,103.1-14.6,147.9l-7.7-1.6c-0.3-57.2,0.1-93.1-1-150.1
			C-420.6,1845.9-418,1845-416.4,1845.1z M-420.5,2018.6c3.6,0.5,4.2,1.8,7.8,3.8c-1.1,17.3-0.3,24.9-2.3,47.8l-11.2-0.3
			c1.8-11.3,3.3-21.7,4.1-28.4C-421.2,2034.9-421,2023.2-420.5,2018.6L-420.5,2018.6z M-416.2,2086.5c0,16.4-1.8,40.4-3.6,54.8
			c-1.2,9.6-12.6,25.5-21.6,25.7c-10.7,0.2-21.8-7.4-19.4-24.4c4.2-29.4,22.8-44.9,31.1-56.4
			C-425.7,2086.3-420.2,2086.4-416.2,2086.5z"/>
		<g id="g4227-0-5_00000096758021157041238510000016989645420276339364_">
			<path id="path4145-6-9-3_00000149367024661738314900000010615975121249306287_" class="st2" d="M-455.6,2050.1
				c0,10.9-4.1,19.7-9.2,19.7c-5.1,0-9.2-8.8-9.2-19.7c0-10.9,4.1-19.7,9.2-19.7C-459.7,2030.4-455.6,2039.2-455.6,2050.1z"/>
			<path id="ellipse4147-7-3-5_00000100356693533688370580000006646551536281157567_" class="st2" d="M-455.6,1979.2
				c0,10.9-4.1,19.7-9.2,19.7c-5.1,0-9.2-8.8-9.2-19.7c0-10.9,4.1-19.7,9.2-19.7C-459.7,1959.5-455.6,1968.4-455.6,1979.2z"/>
			<path id="ellipse4149-5-6-6_00000163767756250729117310000017735299879428751258_" class="st2" d="M-455.6,1908.4
				c0,10.9-4.1,19.7-9.2,19.7c-5.1,0-9.2-8.8-9.2-19.7c0-10.9,4.1-19.7,9.2-19.7C-459.7,1888.7-455.6,1897.5-455.6,1908.4z"/>
			<path id="ellipse4151-3-0-2_00000150091181567465547190000015164738813032801977_" class="st2" d="M-455.6,1837.5
				c0,10.9-4.1,19.7-9.2,19.7c-5.1,0-9.2-8.8-9.2-19.7c0-10.9,4.1-19.7,9.2-19.7C-459.7,1817.9-455.6,1826.7-455.6,1837.5z"/>
			<path id="ellipse4153-5-6-9_00000023993111352397208220000009241869450977601713_" class="st2" d="M-455.6,1766.7
				c0,10.9-4.1,19.7-9.2,19.7c-5.1,0-9.2-8.8-9.2-19.7c0-10.9,4.1-19.7,9.2-19.7C-459.7,1747-455.6,1755.8-455.6,1766.7z"/>
			<path id="ellipse4155-6-2-1_00000080200328117147071750000000785480783170166964_" class="st2" d="M-455.6,1695.9
				c0,10.9-4.1,19.7-9.2,19.7c-5.1,0-9.2-8.8-9.2-19.7c0-10.9,4.1-19.7,9.2-19.7C-459.7,1676.2-455.6,1685-455.6,1695.9z"/>
			<path id="ellipse4157-2-6-2_00000161595673863919110800000001539949648726629294_" class="st2" d="M-467.2,1588.8
				c0,7.2-4.1,13.1-9.2,13.1c-5.1,0-9.2-5.8-9.2-13.1c0-7.2,4.1-13.1,9.2-13.1C-471.3,1575.8-467.2,1581.6-467.2,1588.8z"/>
			<path id="ellipse4159-9-1-7_00000182509232702449067120000016047163221465614986_" class="st2" d="M-467.2,1532
				c0,7.2-4.1,13.1-9.2,13.1c-5.1,0-9.2-5.8-9.2-13.1c0-7.2,4.1-13.1,9.2-13.1C-471.3,1518.9-467.2,1524.8-467.2,1532z"/>
			<path id="ellipse4161-1-8-0_00000075862689814150980250000001143889155144659624_" class="st2" d="M-467.2,1475.2
				c0,7.2-4.1,13.1-9.2,13.1c-5.1,0-9.2-5.8-9.2-13.1c0-7.2,4.1-13.1,9.2-13.1C-471.3,1462.1-467.2,1468-467.2,1475.2z"/>
			<path id="ellipse4163-2-7-9_00000122712292676702384630000008984741021898768264_" class="st2" d="M-467.2,1418.3
				c0,7.2-4.1,13.1-9.2,13.1c-5.1,0-9.2-5.8-9.2-13.1c0-7.2,4.1-13.1,9.2-13.1C-471.3,1405.3-467.2,1411.1-467.2,1418.3z"/>
			<path id="ellipse4165-7-9-3_00000152968556258032863110000005004655321512551817_" class="st2" d="M-467.2,1361.5
				c0,7.2-4.1,13.1-9.2,13.1c-5.1,0-9.2-5.8-9.2-13.1c0-7.2,4.1-13.1,9.2-13.1C-471.3,1348.4-467.2,1354.3-467.2,1361.5z"/>
		</g>
	</g>
	
		<g id="g4831-3-7-2-1-6_00000004516086417455608650000010972175437950361473_" transform="matrix(0.70216393,0,0,0.70216393,375.02872,124.18427)">
		<path id="path4169-3-7-4-0-6-9-6-2-0_00000093895380697364133160000011408781112276013748_" class="st1" d="M1552.3,465.6
			c5.1,23.8,18.6,106.9,34.2,147.6c2,5.2,8.5,7.8,13.8,10c5.3,2.1,11.5,3.6,13.6,11.2c2.9,10.7,8.2,29.9,10.9,38.6
			c1.6,5.1,7.7,9.3,7.7,9.3s0.8,70.6,0.6,146.7c0,10,14.8,17.2,14.8,21.4v489.3h34.2V848.3c0-2.1,10.7-11.5,10.7-19.5
			c0-8-0.6-140.7-0.6-152.6c3.3-3,6.4-7.9,6.4-13.9c0-11.8-10.4-46.3-10.4-46.3s26.5-13,35.9-24.5c9.4-11.4,9.5-16.1,6.2-32
			c-1.7-7.9-34.6-152.1-35.9-155.1c-7.8-18.6-51-25.4-83.2-15.2C1587.4,396.9,1543.1,423.1,1552.3,465.6L1552.3,465.6z"/>
		<path id="path4171-7-6-2-8-75-2-1-9-6_00000137098238997442013830000002427050039044616334_" class="st2" d="M1658.5,418.3
			c-1.1,0.1-26.2,1.6-42.1,6.4c-22.7,6.8-37.3,18.1-37.9,18.5c-2.1,1.6-2.5,4.6-0.8,6.7c0.9,1.2,2.4,1.8,3.8,1.8c1,0,2.1-0.3,2.9-1
			c0.1-0.1,13.8-10.6,34.8-16.9c14.8-4.5,39.7-6,39.9-6c2.6-0.2,4.7-2.4,4.5-5.1C1663.5,420.1,1661.2,418.1,1658.5,418.3z
			 M1662.1,435.3c-1,0.1-24.9,1.6-40.9,6.3c-22.6,6.8-37.4,17.4-38,17.8c-2.1,1.5-2.6,4.5-1.1,6.7c0.9,1.3,2.4,2,3.9,2
			c1,0,1.9-0.3,2.8-0.9c0.1-0.1,14.2-10.1,35.2-16.4c14.8-4.5,38.5-5.9,38.7-5.9c2.6-0.2,4.6-2.4,4.5-5.1
			C1667,437.1,1664.7,435.1,1662.1,435.3L1662.1,435.3z M1665.1,452.5c-1,0.1-25.5,2.2-41.4,7c-22.5,6.8-36.3,15.8-36.9,16.2
			c-2.2,1.5-2.8,4.4-1.4,6.6c0.9,1.4,2.4,2.2,4,2.2c0.9,0,1.8-0.3,2.6-0.8c0.1-0.1,13.4-8.7,34.4-15c14.9-4.5,39.2-6.6,39.5-6.6
			c2.6-0.2,4.6-2.5,4.4-5.2C1670,454.2,1667.7,452.3,1665.1,452.5z M1668.7,470c-1,0.1-25,1.9-40.8,6.7
			c-22.4,6.7-37.1,15.7-37.7,16.1c-2.2,1.4-3,4.3-1.6,6.6c0.9,1.5,2.5,2.3,4.1,2.3c0.9,0,1.7-0.2,2.5-0.7
			c0.1-0.1,14.3-8.7,35.4-15.1c14.9-4.5,38.6-6.3,38.8-6.3c2.6-0.2,4.6-2.5,4.4-5.1C1673.6,471.8,1671.3,469.8,1668.7,470z
			 M1671.3,486.9c-1.1,0.1-26,2.3-41.9,7c-22.5,6.8-35.4,15.5-35.9,15.9c-2.2,1.5-2.7,4.5-1.2,6.6c0.9,1.4,2.4,2.1,3.9,2.1
			c0.9,0,1.9-0.3,2.7-0.8c0.1-0.1,12.2-8.3,33.2-14.6c14.9-4.5,39.7-6.6,40-6.6c2.6-0.2,4.6-2.5,4.4-5.2
			C1676.3,488.6,1674,486.7,1671.3,486.9z M1676.8,503.7c-1.2,0.1-28.4,2.6-44.3,7.3c-22.6,6.8-34.8,15.2-35.3,15.6
			c-2.2,1.5-2.7,4.5-1.2,6.7c0.9,1.3,2.4,2,3.9,2c0.9,0,1.9-0.3,2.7-0.9c0.1-0.1,11.5-7.9,32.6-14.3c14.9-4.5,42.1-6.9,42.4-7
			c2.6-0.2,4.6-2.6,4.3-5.2C1681.8,505.4,1679.5,503.5,1676.8,503.7z M1680.6,520.6c-1.2,0.1-28.4,2.6-44.3,7.3
			c-22.6,6.8-34.8,15.2-35.3,15.6c-2.2,1.5-2.7,4.5-1.2,6.7c0.9,1.3,2.4,2,3.9,2c0.9,0,1.9-0.3,2.7-0.9c0.1-0.1,11.6-8,32.6-14.3
			c14.9-4.5,42.1-6.9,42.4-7c2.6-0.2,4.6-2.6,4.3-5.2C1685.5,522.3,1683.2,520.4,1680.6,520.6z M1684.4,538.2
			c-1.2,0.1-28.4,2.6-44.3,7.3c-22.5,6.7-34.9,14.5-35.4,14.9c-2.2,1.4-2.9,4.4-1.5,6.6c0.9,1.4,2.5,2.2,4.1,2.2
			c0.9,0,1.8-0.2,2.5-0.7c0.1-0.1,12-7.5,33.1-13.8c14.9-4.5,42.1-6.9,42.4-7c2.6-0.2,4.6-2.6,4.3-5.2
			C1689.4,539.9,1687.1,538,1684.4,538.2z"/>
	</g>
	
		<g id="g6541-31-2_00000119079057043056136910000010050979314077592994_" transform="matrix(0.62918383,0.3387667,-0.3387667,0.62918383,534.53432,-27.76422)">
		<path id="rect4814-3-9-6_00000118398053672112868520000004476119996374451872_" class="st1" d="M2114.1-469.5
			c-11.2,0-24.6,6.5-28.6,19.2c-0.9,3-8.1,26-11.7,37.6l-8.4-0.2c0.3-2,2-6.2,0.1-8.6c-2.1-2.7-6.6-3.4-9.7-2.3
			c-3.1,1-4.3,3.4-6.1,7.3c-1.8,3.9-4.3,11-1.3,15.1c2.1,2.9,7,3.8,10.3,2.4c2.2-0.9,2.9-3.3,3.8-4.9l8.3,0.6l2.8-9
			c-2.9,9.4-5.5,17.8-9.5,30.4l-8.3-0.2c0.3-2,2-6.2,0.1-8.6c-2.1-2.7-6.6-3.4-9.7-2.3c-3.1,1-4.3,3.4-6.1,7.3
			c-1.8,3.9-4.3,11-1.3,15.1c2.1,2.9,7,3.8,10.3,2.4c2.2-0.9,2.9-3.3,3.8-4.9l8.3,0.6c-2.9,9.3-3.7,11.7-6.7,21.4l-8.3-0.2
			c0.3-2,2-6.2,0.1-8.6c-2.1-2.7-6.6-3.4-9.7-2.3c-3.1,1-4.3,3.4-6.1,7.3c-1.8,3.9-4.3,11-1.3,15.1c2.1,2.9,7,3.8,10.3,2.4
			c2.2-0.9,2.9-3.3,3.8-4.9l8.3,0.6c-3.4,10.9-3.6,11.5-6.6,21.4l-8.3-0.2c0.3-2,2-6.2,0.2-8.6c-2.1-2.7-6.6-3.4-9.7-2.3
			c-3.1,1-4.3,3.4-6.1,7.3c-1.8,3.9-4.3,11-1.3,15.1c2.1,2.9,7,3.8,10.3,2.4c2.2-0.9,2.9-3.3,3.8-4.9l8.3,0.6
			c-2.8,9.1-4.6,14.9-6.6,21.4l-8.3-0.2c0.3-2,2-6.2,0.2-8.6c-2.1-2.7-6.6-3.4-9.7-2.3c-3.1,1-4.3,3.4-6.1,7.3
			c-1.8,3.9-4.3,11-1.3,15.1c2.1,2.9,7,3.8,10.3,2.4c2.2-0.9,2.9-3.3,3.8-4.9l8.3,0.6c-1.8,5.9-7.8,25.2-7.8,25.2l19.4,15.8
			l-6.3,544.6l0,0c0,0.1-0.4,26.2-41.9,26.2c-75.5,0-30.2-100.2-69.5-100.2c-17.1,0-43.3,33.7-43.3,78c0,54.9,41.6,125.4,41.6,184.8
			c0,38.3-58.7,122.1-58.7,197.6c0,75.5,85.3,128.1,207.7,128.1c156.6,0,207.7-51.6,207.7-128.1c0-98.2-58.7-142.7-58.7-197.6
			c0-42.3,30.9-67,30.9-117.3c0-50.3-19.1-66.5-39.3-66.5c-22.2,0-11.6,80.6-66.5,80.6c-14-0.2-26.3-4.4-37.4-11.2l-7.2-618.9
			c0,0-1.1-17.2,9-27.8c10-10.6,23.7-18.3,23.7-18.3s-16.2-86-17.4-93.1c-2.5-14.4,0.3-17.6,7.6-22.7c9.5-6.6,21.9-12.4,21.9-33.1
			C2148.1-457.5,2125.3-469.5,2114.1-469.5L2114.1-469.5z M2067.9-455.1c-0.9,0-1.8,0.2-2.5,0.4c-3.1,1-4.3,3.4-6.1,7.3
			c-1.8,3.9-4.3,11-1.3,15.1c2.1,2.9,7,3.8,10.3,2.4c2.2-0.9,2.9-3.3,3.8-4.9l8.3,0.6l2.9-9.4l-8.4-0.2c0.3-2,2-6.2,0.2-8.6
			C2073.6-454.3,2070.6-455.2,2067.9-455.1z"/>
		<path id="rect6467-0-4-1_00000003078841538473115650000016461811853763272344_" class="st2" d="M2030.7,640.5l86,0
			c11.8,0,21.4,9.5,21.4,21.4c0,11.8-9.5,21.4-21.4,21.4l-86,0c-11.8,0-21.4-9.5-21.4-21.4C2009.3,650,2018.8,640.5,2030.7,640.5z
			 M2038.8,432.6l69.9,0c7,0,12.6,5.6,12.6,12.6c0,7-5.6,12.6-12.6,12.6l-69.9,0c-7,0-12.6-5.6-12.6-12.6
			C2026.2,438.2,2031.8,432.6,2038.8,432.6z M2038.8,501.9l69.9,0c7,0,12.6,5.6,12.6,12.6c0,7-5.6,12.6-12.6,12.6l-69.9,0
			c-7,0-12.6-5.6-12.6-12.6C2026.2,507.5,2031.8,501.9,2038.8,501.9z M2038.8,571.2l69.9,0c7,0,12.6,5.6,12.6,12.6
			c0,7-5.6,12.6-12.6,12.6l-69.9,0c-7,0-12.6-5.6-12.6-12.6C2026.2,576.8,2031.8,571.2,2038.8,571.2z"/>
	</g>
	
		<g id="g4959-9-7-8-0-8_00000034809627497527502860000016394317990397153440_" transform="matrix(0.912964,0.21574786,-0.21574786,0.912964,116.71357,34.600257)" class="st4">
		<path id="path4191-0-4-6-1-1-5-7-3-7_00000023969685725930596110000017994443849112332951_" class="st5" d="M1172.4,1175.4
			L2057.2,837c5.8-2.2,8.7-8.8,6.5-14.6l-75.5-197.2c-2.2-5.8-8.8-8.7-14.6-6.5l-884.8,338.5c-5.8,2.2-8.7,8.8-6.5,14.6l75.4,197.2
			C1160.1,1174.8,1166.6,1177.7,1172.4,1175.4L1172.4,1175.4z"/>
		<path id="path4193-9-5-8-5-27-9-9-6-9_00000168832992729846075720000017212111494008761751_" class="st6" d="M1194.4,1147.2
			L2018,832.1c5.8-2.2,8.8-8.8,6.5-14.6L1981.4,705c-2.2-5.8-8.8-8.7-14.6-6.5l-823.6,315.1c-5.8,2.2-8.7,8.8-6.5,14.6l43.1,112.5
			C1182,1146.5,1188.5,1149.4,1194.4,1147.2L1194.4,1147.2z"/>
		<path id="path4193-9-5-8-5-7-6-0-2-2-1-2_00000062913110485414789150000004917745365795933606_" class="st5" d="M1934.9,710.7
			l-18.5,7.1c2.3,6.1,26.8,70.1,28.5,74.4c1.7,4.5,3.5,4.6,11.2,1.7c7.7-3,8.7-4.8,7.2-8.7C1961.9,781.3,1937.2,716.8,1934.9,710.7z
			 M1903,722.9l-18.5,7.1c2.3,6.1,26.8,70.1,28.5,74.4c1.7,4.5,3.5,4.6,11.2,1.7c7.7-3,8.7-4.8,7.2-8.7
			C1930,793.5,1905.3,729,1903,722.9z M1871.1,735.1l-18.5,7.1c2.3,6.1,26.8,70.1,28.5,74.4c1.7,4.5,3.5,4.6,11.2,1.7
			c7.7-3,8.7-4.8,7.2-8.8C1898.2,805.7,1873.5,741.2,1871.1,735.1z M1821.9,753.9l-18.4,7.1c2.3,6,26.8,70.1,28.5,74.4
			c1.7,4.5,3.5,4.7,11.2,1.7c7.7-3,8.7-4.8,7.2-8.7C1848.9,824.6,1824.2,760,1821.9,753.9z M1787.2,767.2l-18.4,7.1
			c2.3,6,26.8,70.1,28.5,74.4c1.7,4.5,3.5,4.6,11.2,1.7c7.7-3,8.7-4.8,7.2-8.7C1814.2,837.8,1789.5,773.3,1787.2,767.2z M1737.9,786
			l-18.4,7.1c2.3,6.1,26.8,70.1,28.5,74.4c1.7,4.5,3.5,4.6,11.2,1.7c7.7-3,8.7-4.8,7.2-8.7C1765,856.7,1740.2,792.1,1737.9,786z
			 M1706,798.2l-18.4,7.1c2.3,6,26.8,70.1,28.5,74.4c1.7,4.5,3.5,4.6,11.2,1.7c7.7-3,8.7-4.8,7.2-8.7
			C1733.1,868.9,1708.4,804.3,1706,798.2z M1674.2,810.4l-18.5,7.1c2.3,6.1,26.8,70.1,28.5,74.4c1.7,4.5,3.5,4.6,11.2,1.7
			c7.7-3,8.7-4.8,7.2-8.7C1701.2,881.1,1676.5,816.5,1674.2,810.4z M1624.9,829.3l-18.5,7.1c2.3,6.1,26.8,70.1,28.5,74.4
			c1.7,4.5,3.5,4.6,11.2,1.7c7.7-3,8.7-4.8,7.2-8.7C1651.9,899.9,1627.2,835.4,1624.9,829.3z M1590.2,842.5l-18.5,7.1
			c2.3,6.1,26.8,70.1,28.5,74.4c1.7,4.5,3.5,4.6,11.2,1.7c7.7-3,8.7-4.8,7.2-8.8C1617.3,913.2,1592.6,848.6,1590.2,842.5z
			 M1540.9,861.4l-18.4,7.1c2.3,6,26.8,70.1,28.5,74.4c1.7,4.5,3.5,4.7,11.2,1.7c7.7-3,8.7-4.8,7.2-8.8
			C1568,932,1543.3,867.5,1540.9,861.4z M1509.1,873.6l-18.5,7.1c2.3,6,26.8,70.1,28.5,74.4c1.7,4.5,3.5,4.6,11.2,1.7
			c7.7-3,8.7-4.8,7.2-8.7C1536.1,944.2,1511.4,879.7,1509.1,873.6z M1477.2,885.8l-18.4,7.1c2.3,6,26.8,70.1,28.5,74.4
			c1.7,4.5,3.5,4.6,11.2,1.7c7.7-3,8.7-4.8,7.2-8.7C1504.2,956.4,1479.5,891.9,1477.2,885.8z M1427.9,904.6l-18.5,7.1
			c2.3,6,26.8,70.1,28.5,74.4c1.7,4.5,3.5,4.7,11.2,1.7c7.7-3,8.7-4.8,7.2-8.7C1454.9,975.3,1430.2,910.7,1427.9,904.6z
			 M1393.2,917.9l-18.5,7.1c2.3,6,26.8,70.1,28.5,74.4c1.7,4.5,3.5,4.6,11.2,1.7c7.7-3,8.7-4.8,7.2-8.7
			C1420.3,988.6,1395.6,924,1393.2,917.9z M1344,936.8l-18.4,7.1c2.3,6,26.8,70.1,28.5,74.4c1.7,4.5,3.5,4.6,11.2,1.7
			c7.7-3,8.7-4.8,7.2-8.7C1371,1007.4,1346.3,942.8,1344,936.8z M1312.1,948.9l-18.4,7.1c2.3,6.1,26.8,70.1,28.5,74.4
			c1.7,4.5,3.5,4.6,11.2,1.7c7.7-3,8.7-4.8,7.2-8.7C1339.1,1019.6,1314.4,955,1312.1,948.9z M1280.2,961.1l-18.5,7.1
			c2.3,6,26.8,70.1,28.5,74.4c1.7,4.5,3.5,4.6,11.2,1.7c7.7-3,8.7-4.8,7.2-8.7C1307.2,1031.8,1282.5,967.2,1280.2,961.1z
			 M1230.9,980l-18.4,7.1c2.3,6.1,26.8,70.1,28.5,74.4c1.7,4.5,3.5,4.6,11.2,1.7c7.7-3,8.7-4.8,7.2-8.7
			C1258,1050.6,1233.3,986.1,1230.9,980z M1196.3,993.3l-18.4,7.1c2.3,6,26.8,70.1,28.5,74.4c1.7,4.5,3.5,4.6,11.2,1.7
			c7.7-3,8.7-4.8,7.2-8.7C1223.3,1063.9,1198.6,999.4,1196.3,993.3z"/>
	</g>
</g>
<g id="Laag_3">
	<g>
		<path class="st1" d="M2338.6,1135.7c-10.7-9.3-22.8-15.8-36.1-19.2c-11.5-3-24.5-4.4-39.8-4.4h-48.9c-15.8,0-28.4,4.6-37.4,13.7
			c-1.8,1.8-3.5,3.8-5,6c-1.5-2.8-3.3-5.4-5.4-7.8c-8.4-9.7-20.5-15-34-15c-13.4,0-25.4,5.4-33.8,15.2c-7.6,8.8-11.4,20.4-11.4,34.4
			v16.7l-20.5-31c-2-3.1-3.9-6.2-5.8-9.2c-3-4.6-5.9-8.4-9.1-11.6c-4.3-4.3-9.2-7.8-14.8-10.4c-6.1-2.8-12.9-4.2-20.3-4.2
			c-9.7,0-19.1,2.8-27.3,8.1c-5.9,3.8-10.8,8.7-14.6,14.4c-1.7-2.9-3.6-5.5-5.9-8c-8.9-9.5-20.7-14.6-34.3-14.6
			c-13.5,0-25.8,5.3-34.4,14.9c-8.1,9-12.3,21.1-12.3,35.9v91.9c0,11.8-2.2,16.5-2.9,17.8c-1,0.4-3.9,1.2-9.2,1.2
			c-6.7,0-9.2-1.1-9.5-1.2c-0.4-0.2-0.6-0.4-0.9-1.5c-0.9-2.8-2-8-2-17.1v-91.1c0-14.7-4.1-26.8-12.3-35.9c-8.7-9.7-21-15-34.7-15
			c-13.4,0-25.6,5.3-34.3,15c-6.9,7.7-10.9,17.4-12,29.1c-8.7-11.8-19.6-21.4-32.6-28.8c-18-10.2-39.3-15.3-63.3-15.3
			c-17.7,0-33.9,2.9-48.3,8.6c-15,6-27.9,14.7-38.5,26.1c-4.3,4.6-8.1,9.5-11.5,14.9c-0.5-1.2-1.1-2.5-1.7-3.7
			c-4.2-8.6-10.6-16.5-19-23.7c-8.2-7-18.2-12.5-29.9-16.5c-11.2-3.8-24.2-5.7-38.6-5.7c-17.8,0-33.8,2.8-47.7,8.4
			c-15.6,6.3-27.9,15.8-36.6,28.2c-2.7,3.8-5,7.8-6.9,12c-5.3-8.1-11.7-15.4-19.1-21.8c-10.7-9.3-22.8-15.8-36.1-19.2
			c-11.5-3-24.5-4.4-39.8-4.4h-48.9c-15.8,0-28.4,4.6-37.4,13.7c-1.8,1.8-3.5,3.8-5,6c-1.5-2.8-3.3-5.4-5.4-7.8
			c-8.4-9.7-20.5-15-34-15c-13.4,0-25.4,5.4-33.8,15.2c-7.6,8.8-11.4,20.4-11.4,34.4v16.7l-20.5-31c-2-3.1-3.9-6.2-5.8-9.2
			c-3-4.6-5.9-8.4-9.1-11.6c-4.3-4.3-9.2-7.8-14.8-10.4c-6.1-2.8-12.9-4.2-20.3-4.2c-9.7,0-19.1,2.8-27.3,8.1
			c-8.4,5.4-14.8,13-18.6,21.9c-0.1,0.2-0.2,0.5-0.3,0.7c-1.6,4.2-2.7,8.8-3.4,14c-8.7-12.1-19.8-22-33.1-29.5
			c-18-10.2-39.3-15.3-63.3-15.3c-17.7,0-33.9,2.9-48.3,8.6c-15,6-27.9,14.7-38.5,26.1c-4.2,4.5-7.9,9.3-11.3,14.5
			c-1.3-2.1-2.6-4.2-4.1-6.3c-8.9-12.5-21.3-22.9-37.1-31c-15.7-8-33.4-12-52.8-12c-15.9,0-31.1,2.9-45.3,8.6
			c-14.5,5.8-27.3,14.5-38.1,25.7c-1.1,1.1-2.1,2.2-3.1,3.4c-1.6-9-6-17-12.8-23.2c-8.2-7.5-19.1-11.3-32.3-11.3h-99.1
			c-9.3,0-17.7,1.6-24.7,4.9c-9.5,4.3-16.9,11.6-21.3,21.1c-0.9,1.9-1.6,3.8-2.3,5.9c-3.4-4.5-7.5-8.8-12.2-12.8
			c-8.2-7-18.2-12.5-29.9-16.5c-11.2-3.8-24.2-5.7-38.6-5.7c-17.8,0-33.8,2.8-47.7,8.4c-15.6,6.3-27.9,15.8-36.6,28.2
			c-8.9,12.7-13.4,27.3-13.4,43.3c0,16.7,4.5,31.4,13.3,43.4c1.1,1.5,2.2,2.9,3.4,4.3c-2.7,1.8-5.2,3.8-7.5,6.2
			c-8.3,8.5-12.7,19.4-12.7,31.3c0,13.2,4.1,26.4,12.3,39.3c7.6,12,17.7,21.8,30,29c0,0,0.1,0.1,0.1,0.1
			c16.2,9.4,36.1,14.2,59.4,14.2c19.2,0,36.4-3.4,51.2-10.1c12-5.5,22.1-12.7,30-21.7c2.2,5.7,5.4,10.7,9.6,14.9
			c9,9.1,21.7,13.8,37.6,13.8h102c16.3,0,26.6-6.2,32.3-11.5c5.8-5.3,9.8-12,12-19.4c6.8,7.5,14.4,13.7,22.5,18.6
			c9,5.4,19.1,9.4,29.9,11.9c10,2.3,21.1,3.5,33,3.5c16.6,0,31.7-2.8,44.9-8.4c13.2-5.6,24.4-13.3,33.3-22.7
			c5.8-6.1,10.6-12.5,14.4-19.1c3.2,5.1,6.8,9.8,10.8,14.2c10.5,11.6,23.6,20.7,38.9,27c14.8,6,31.5,9.1,49.5,9.1
			c18.1,0,34.7-3,49.3-8.9c15.2-6.1,28.3-15.2,38.9-27c2.5-2.8,4.9-5.7,7.1-8.7c0.9,11.7,4.7,21.6,11.6,29.4
			c8.5,9.7,20.6,15.1,33.9,15.1c13,0,24.9-5.2,33.4-14.6c8.1-8.9,12.2-20.7,12.2-34.9v-14l18.8,28.8c0.1,0.2,0.2,0.4,0.4,0.5
			c2.1,3.1,4.3,6.1,6.4,9.1c3.2,4.5,6.8,8.5,10.7,12c5,4.5,10.7,7.9,16.8,10.1c5.8,2.1,12,3.1,18.6,3.1c15,0,28.1-5.8,36.8-16.3
			c1.8-2.2,3.4-4.6,4.8-7.1c3.5,5.3,8.2,9.7,13.9,13.1c8,4.8,17.7,7.1,29.8,7.1h48.9c10,0,19.2-0.7,27.4-2
			c9.2-1.5,18.1-4.1,26.2-7.9c8.4-3.9,16.3-9,23.4-15.4c0.1-0.1,0.2-0.2,0.3-0.2c6.3-5.8,11.8-12.2,16.4-19.2c0.8,1.5,1.7,3,2.7,4.5
			c7.6,12,17.7,21.8,30,29c0,0,0.1,0.1,0.1,0.1c16.2,9.4,36.1,14.2,59.4,14.2c19.2,0,36.4-3.4,51.2-10.1c16-7.3,28.6-17.8,37.3-31.3
			c1-1.5,1.9-3.1,2.8-4.6c2.5,3.5,5.1,6.8,7.9,9.9c10.5,11.6,23.6,20.7,38.9,27c14.8,6,31.5,9.1,49.5,9.1c18.1,0,34.7-3,49.3-8.9
			c15.2-6.1,28.3-15.2,38.9-27c5.7-6.3,10.6-13.3,14.8-20.9c4.4,11.5,10.8,21.5,19,29.6c9.8,9.7,22.2,16.9,36.9,21.3
			c12.8,3.8,27.9,5.8,44.8,5.8c14.8,0,28.2-1.9,39.9-5.6c12.8-4.1,24.3-10.8,34-19.8c0,0,0.1-0.1,0.1-0.1c5.6-5.3,10.4-11,14.3-17.3
			c1.1,11,4.9,20.2,11.4,27.7c8.5,9.7,20.6,15.1,33.9,15.1c13,0,24.9-5.2,33.4-14.7c8.1-8.9,12.2-20.7,12.2-34.9v-14l18.8,28.8
			c0.1,0.2,0.2,0.4,0.4,0.5c2.1,3,4.2,6.1,6.4,9.1c3.2,4.5,6.8,8.5,10.7,12c5,4.5,10.7,7.9,16.8,10.1c5.8,2.1,12,3.1,18.6,3.1
			c15,0,28.1-5.8,36.8-16.3c1.8-2.2,3.4-4.6,4.8-7.1c3.5,5.3,8.2,9.7,13.9,13.1c8,4.8,17.7,7.1,29.8,7.1h48.9c10,0,19.2-0.7,27.4-2
			c9.2-1.5,18.1-4.1,26.2-7.9c8.4-3.9,16.3-9,23.4-15.4c0.1-0.1,0.2-0.2,0.3-0.2c8.5-7.9,15.7-16.9,21.2-26.9
			c5.3-9.7,9.3-20.7,11.8-32.5c2.3-11.1,3.5-23.2,3.5-36.3C2377.2,1190.2,2364.2,1157.7,2338.6,1135.7z M350.4,1163.8
			c1.2-0.1,2.3-0.1,3.5-0.1h0C352.8,1163.7,351.6,1163.7,350.4,1163.8z M604.6,1193.5c0,0.1,0,0.2-0.1,0.2c-0.1,0-0.1-0.1-0.2-0.1
			C604.4,1193.6,604.5,1193.6,604.6,1193.5z M590.7,1238.9c-0.3,0.3-0.7,0.6-1.1,0.9C589.9,1239.5,590.3,1239.2,590.7,1238.9
			c0.3-0.3,0.7-0.7,1-1C591.3,1238.2,591,1238.6,590.7,1238.9z M602.8,1264.7c0,0.1,0,0.1,0,0.2c0.4,1.7,0.8,3.4,1.2,5.1
			c-2.5-0.8-5.3-1.5-8.3-1.9C598.3,1267.1,600.7,1265.9,602.8,1264.7z M600.7,1321.3c-0.4,0.3-0.8,0.7-1.2,1
			C599.9,1322,600.3,1321.6,600.7,1321.3c1.1-1,2-2.2,2.7-3.4C602.7,1319.1,601.8,1320.3,600.7,1321.3z M684.9,1178.4
			c1.3-1.2,2.6-2.3,4-3.3C687.5,1176.1,686.2,1177.2,684.9,1178.4z M779.2,1301.2c1.8-2.2,3.3-4.4,4.7-6.6
			C782.5,1296.8,780.9,1299,779.2,1301.2z M860,1204c0.3-1,0.7-2.1,1-3.1C860.7,1202,860.3,1203,860,1204c-0.3,0.8-0.5,1.6-0.7,2.5
			C859.5,1205.7,859.7,1204.8,860,1204z M860,1260.8c-0.3-1.1-0.6-2.1-0.9-3.2C859.4,1258.7,859.7,1259.8,860,1260.8
			c0.4,1.3,0.8,2.6,1.3,3.8C860.8,1263.4,860.4,1262.1,860,1260.8z M870.9,1183.4c-0.5,0.6-1,1.2-1.5,1.8
			C869.9,1184.6,870.4,1184,870.9,1183.4c4.6-5.4,10.1-9.5,16.4-12.3c0.8-0.4,1.6-0.7,2.4-1c1.6-0.6,3.3-1.1,5-1.6
			c-1.7,0.4-3.4,1-5,1.6c-0.8,0.3-1.6,0.6-2.4,1C880.9,1173.9,875.5,1178,870.9,1183.4z M938.9,1324.7c3-0.9,6-1.8,8.8-3
			C944.8,1322.9,941.9,1323.9,938.9,1324.7z M947.4,1184.6c1.1,1.4,2.1,2.8,3.1,4.3C949.5,1187.4,948.5,1186,947.4,1184.6z
			 M994.7,1268.2c-0.3,1.1-0.7,2.2-1,3.3c-0.5,1.5-1,2.9-1.5,4.3c0.5-1.4,1.1-2.9,1.5-4.3C994,1270.5,994.3,1269.4,994.7,1268.2
			c0.7-2.2,1.2-4.5,1.8-6.9C995.9,1263.7,995.3,1266,994.7,1268.2z M1137.6,1306.4l-70.4-107.9L1137.6,1306.4c1,1.5,2,2.9,3,4.4
			C1139.6,1309.4,1138.6,1307.9,1137.6,1306.4z M1153.9,1325.2c1.3,0.8,2.6,1.4,3.9,1.9C1156.4,1326.6,1155.1,1326,1153.9,1325.2z
			 M1348.6,1225.4c-0.1-2.1-0.2-4.2-0.4-6.2C1348.4,1221.2,1348.5,1223.2,1348.6,1225.4z M1232.8,1319c-0.5-0.6-1-1.3-1.4-2
			c-0.6-1-1.1-2.2-1.4-3.4c-0.1-0.5-0.3-1-0.4-1.5c0.1,0.5,0.2,1,0.4,1.5c0.3,1.2,0.8,2.4,1.4,3.4
			C1231.8,1317.7,1232.3,1318.4,1232.8,1319c0.5,0.6,1.1,1.2,1.7,1.7C1233.9,1320.2,1233.3,1319.6,1232.8,1319z M1252.2,1325.4
			c-3.7,0-7-0.3-9.7-0.9C1245.2,1325.1,1248.4,1325.4,1252.2,1325.4L1252.2,1325.4z M1325.9,1176.1c-0.9-0.5-1.9-1-2.9-1.4
			c-1-0.4-2-0.8-3-1.1c-8.1-2.5-17.9-3.7-29.3-3.7l0,0c11.5,0,21.2,1.2,29.3,3.7c1,0.3,2,0.7,3,1.1
			C1324,1175.1,1324.9,1175.5,1325.9,1176.1c0.9,0.5,1.8,1.1,2.7,1.7C1327.7,1177.1,1326.8,1176.6,1325.9,1176.1z M1339.1,1188.9
			c-0.9-1.3-1.8-2.6-2.8-3.8C1337.3,1186.3,1338.2,1187.5,1339.1,1188.9c0.4,0.7,0.9,1.4,1.3,2.1c3.8,6.3,6.3,14.7,7.5,25.3
			c-1.2-10.6-3.7-19-7.5-25.3C1340,1190.2,1339.6,1189.5,1339.1,1188.9z M1496,1164.8c-1-0.2-2-0.4-3.1-0.6
			C1494,1164.4,1495,1164.6,1496,1164.8z M1425.2,1161.6c1.4-2,2.9-3.8,4.6-5.6C1428.1,1157.8,1426.6,1159.7,1425.2,1161.6
			c-5.6,7.9-8.3,17-8.3,27.2c0,10.7,2.6,19.6,7.9,26.9c5.3,7.2,12.4,12.9,21.4,17.1c9,4.2,20.1,7.8,33.4,10.9
			c-13.3-3.1-24.5-6.8-33.4-10.9c-9-4.2-16.1-9.9-21.4-17.1c-5.3-7.2-7.9-16.2-7.9-26.9C1416.8,1178.6,1419.6,1169.6,1425.2,1161.6z
			 M1418,1262.4c0.3-0.4,0.7-0.7,1.1-1C1418.7,1261.7,1418.4,1262.1,1418,1262.4c-2,2-3.3,4.3-4.1,6.8
			C1414.7,1266.7,1416.1,1264.4,1418,1262.4z M1421.2,1298.3c-2.6-4.1-4.6-8.2-5.9-12.3C1416.6,1290.1,1418.6,1294.1,1421.2,1298.3
			c5.3,8.3,12.1,14.9,20.5,19.9C1433.3,1313.2,1426.5,1306.6,1421.2,1298.3z M1461.9,1326c-1.9-0.4-3.7-0.9-5.5-1.5
			c-1.8-0.5-3.5-1.1-5.2-1.8c1.7,0.6,3.4,1.2,5.2,1.8C1458.2,1325.1,1460.1,1325.5,1461.9,1326c5.7,1.3,11.8,2.1,18.3,2.4
			C1473.7,1328.1,1467.6,1327.3,1461.9,1326z M1483.1,1244.5c8.3,2,15,3.8,20.2,5.6c4.5,1.5,8.3,3.5,11.5,6.1
			c-3.2-2.5-7.1-4.6-11.5-6.1C1498.1,1248.3,1491.4,1246.5,1483.1,1244.5z M1513.1,1293.2c-0.7,0.5-1.5,1-2.2,1.5
			C1511.6,1294.3,1512.3,1293.8,1513.1,1293.2c1.3-1,2.4-2,3.5-3C1515.5,1291.3,1514.3,1292.3,1513.1,1293.2z M1521.4,1283.4
			c1.4-2.9,2.1-6.1,2.1-9.6c0-6.1-1.9-11.1-5.6-15c3.7,3.8,5.6,8.8,5.6,15C1523.5,1277.3,1522.8,1280.5,1521.4,1283.4z
			 M1526.1,1196.4c-2.2-2.1-4.7-5.7-7.3-10.6c-3.4-7-7.4-12.4-12.1-16.4c-2.1-1.7-4.7-3.1-7.8-4c3.2,1,5.8,2.3,7.8,4
			c4.7,3.9,8.8,9.4,12.1,16.4C1521.4,1190.8,1523.8,1194.3,1526.1,1196.4c1.1,1.1,2.5,1.9,4.1,2.4
			C1528.6,1198.3,1527.2,1197.5,1526.1,1196.4z M1530.8,1318.9c3.7-2,7-4.2,10-6.6C1537.8,1314.7,1534.4,1316.9,1530.8,1318.9z
			 M1607.6,1162.8c1-1,2-2.1,3-3C1609.6,1160.7,1608.6,1161.7,1607.6,1162.8c-0.1,0.1-0.3,0.3-0.4,0.4
			C1607.4,1163.1,1607.5,1162.9,1607.6,1162.8z M1583.9,1227c0.4-12.2,2.5-23.5,6-33.9c0.8-2.3,1.7-4.6,2.6-6.8
			c-0.9,2.2-1.8,4.5-2.6,6.8C1586.3,1203.5,1584.3,1214.8,1583.9,1227z M1607,1301.8c-7.7-8.5-13.5-18.7-17.4-30.7
			c-0.4-1.1-0.7-2.3-1.1-3.5c0,0,0,0,0,0c0.3,1.2,0.7,2.3,1.1,3.5C1593.5,1283,1599.3,1293.3,1607,1301.8
			c7.7,8.5,17.2,15.1,28.7,19.8C1624.2,1316.9,1614.7,1310.3,1607,1301.8z M1674.6,1328.6c-12.7,0-24.2-1.8-34.6-5.4
			C1650.4,1326.8,1661.9,1328.6,1674.6,1328.6L1674.6,1328.6z M1716.7,1275.4c1.2-1.9,2.3-3.9,3.3-6.1
			C1719,1271.4,1717.9,1273.4,1716.7,1275.4z M1799.6,1147.7c0.8-2,1.8-3.6,3.1-5.1c0.4-0.5,0.9-0.9,1.3-1.3
			c-0.5,0.4-0.9,0.9-1.3,1.3C1801.4,1144.1,1800.4,1145.8,1799.6,1147.7c-0.5,1.3-1,2.7-1.3,4.3
			C1798.6,1150.5,1799,1149,1799.6,1147.7z M2009.2,1138.2c-0.9,0.3-1.8,0.7-2.7,1.2C2007.4,1138.9,2008.3,1138.5,2009.2,1138.2z
			 M2135.2,1327.9c3.2-0.7,5.8-2.1,7.9-4C2141,1325.9,2138.3,1327.2,2135.2,1327.9z M2274.1,1265.4c-0.1,0.1-0.3,0.2-0.4,0.4
			c0,0,0,0,0,0c0,0-0.2,0.1-0.7,0.3c-1.6,0.6-3,0.9-4.2,1c-1.8,0.2-5.4,0.4-12,0.4h-0.3V1198c7.1,0.2,13.1,1,17.7,2.4
			c0.9,0.3,2.6,1.8,4.6,5.1c1,1.6,4.2,8.3,4.2,26.5C2283,1248.7,2279.9,1260.6,2274.1,1265.4z M2302.8,1190.9
			c0.8,1.4,1.6,2.9,2.3,4.5C2304.4,1193.8,2303.7,1192.3,2302.8,1190.9z M2334.1,1172.8c1.1,1.7,2.2,3.5,3.2,5.4
			C2336.3,1176.3,2335.2,1174.5,2334.1,1172.8z M2344.4,1195.5c1.1,3.7,2,7.5,2.7,11.4C2346.3,1203,2345.5,1199.2,2344.4,1195.5z"/>
		<g>
			<path class="st2" d="M430.6,1269.8c0,11.2-2.9,21.3-8.7,30.2c-5.8,8.9-14.2,15.9-25.3,21c-11.1,5.1-24.3,7.6-39.6,7.6
				c-18.3,0-33.4-3.5-45.2-10.4c-8.4-5-15.3-11.6-20.5-19.9c-5.3-8.3-7.9-16.4-7.9-24.2c0-4.5,1.6-8.4,4.7-11.7
				c3.2-3.2,7.2-4.9,12.1-4.9c4,0,7.3,1.3,10,3.8c2.7,2.5,5.1,6.3,7,11.2c2.4,5.9,4.9,10.8,7.6,14.8c2.7,4,6.6,7.2,11.6,9.8
				c5,2.6,11.5,3.9,19.6,3.9c11.1,0,20.2-2.6,27.1-7.8c7-5.2,10.4-11.6,10.4-19.4c0-6.1-1.9-11.1-5.6-15c-3.7-3.8-8.6-6.8-14.5-8.8
				c-5.9-2-13.9-4.2-23.8-6.4c-13.3-3.1-24.5-6.8-33.4-10.9c-9-4.2-16.1-9.9-21.4-17.1c-5.3-7.2-7.9-16.2-7.9-26.9
				c0-10.2,2.8-19.2,8.3-27.2c5.6-7.9,13.6-14,24.1-18.3c10.5-4.3,22.9-6.4,37.2-6.4c11.4,0,21.2,1.4,29.5,4.2
				c8.3,2.8,15.2,6.6,20.7,11.2c5.5,4.7,9.5,9.6,12,14.7c2.5,5.1,3.8,10.2,3.8,15c0,4.5-1.6,8.5-4.7,12.1c-3.2,3.6-7.1,5.4-11.8,5.4
				c-4.3,0-7.6-1.1-9.8-3.2c-2.2-2.1-4.7-5.7-7.3-10.6c-3.4-7-7.4-12.4-12.1-16.4c-4.7-3.9-12.3-5.9-22.7-5.9
				c-9.7,0-17.5,2.1-23.4,6.4c-5.9,4.3-8.9,9.4-8.9,15.4c0,3.7,1,6.9,3,9.6c2,2.7,4.8,5,8.3,7c3.5,1.9,7.1,3.5,10.7,4.5
				c3.6,1.1,9.6,2.7,17.9,4.8c10.4,2.4,19.9,5.1,28.4,8.1c8.5,3,15.7,6.5,21.6,10.7c5.9,4.2,10.6,9.5,13.9,16
				C428.9,1252.6,430.6,1260.4,430.6,1269.8z"/>
			<path class="st2" d="M584.5,1169.1h-84.5v45.5h77.8c5.7,0,10,1.3,12.8,3.9c2.8,2.6,4.2,6,4.2,10.2c0,4.2-1.4,7.6-4.2,10.3
				c-2.8,2.7-7.1,4-12.9,4h-77.8v52.7h87.4c5.9,0,10.3,1.4,13.3,4.1c3,2.7,4.5,6.4,4.5,10.9c0,4.4-1.5,7.9-4.5,10.7
				c-3,2.7-7.4,4.1-13.3,4.1h-102c-8.2,0-14-1.8-17.6-5.4c-3.6-3.6-5.4-9.5-5.4-17.6v-139.3c0-5.4,0.8-9.8,2.4-13.2
				c1.6-3.4,4.1-5.9,7.5-7.5c3.4-1.6,7.8-2.3,13.1-2.3h99.1c6,0,10.4,1.3,13.3,4c2.9,2.7,4.4,6.1,4.4,10.4c0,4.4-1.5,7.9-4.4,10.6
				C594.9,1167.8,590.4,1169.1,584.5,1169.1z"/>
			<path class="st2" d="M792.8,1266.9c0,5.9-1.5,12.3-4.4,19.1c-2.9,6.9-7.5,13.6-13.7,20.2c-6.2,6.6-14.2,12-23.9,16.1
				c-9.7,4.1-21,6.2-33.9,6.2c-9.8,0-18.7-0.9-26.7-2.8c-8-1.9-15.3-4.7-21.8-8.7c-6.5-3.9-12.5-9.1-18-15.5
				c-4.9-5.8-9.1-12.3-12.5-19.5c-3.5-7.2-6-14.9-7.8-23.1c-1.7-8.2-2.6-16.8-2.6-26c0-14.9,2.2-28.3,6.5-40.1
				c4.3-11.8,10.6-21.9,18.6-30.3c8.1-8.4,17.6-14.8,28.4-19.1c10.9-4.4,22.4-6.6,34.8-6.6c15,0,28.3,3,40.1,9
				c11.7,6,20.7,13.4,26.9,22.2c6.2,8.8,9.4,17.1,9.4,25c0,4.3-1.5,8.1-4.5,11.4c-3,3.3-6.7,4.9-11,4.9c-4.8,0-8.4-1.1-10.8-3.4
				c-2.4-2.3-5.1-6.2-8-11.8c-4.9-9.2-10.6-16-17.2-20.6c-6.6-4.5-14.8-6.8-24.5-6.8c-15.4,0-27.7,5.9-36.8,17.6
				c-9.1,11.7-13.7,28.3-13.7,49.9c0,14.4,2,26.4,6.1,36c4,9.6,9.8,16.7,17.2,21.4c7.4,4.7,16.1,7.1,26,7.1c10.8,0,19.9-2.7,27.4-8
				c7.5-5.3,13.1-13.2,16.9-23.6c1.6-4.9,3.6-8.9,5.9-11.9c2.4-3.1,6.1-4.6,11.4-4.6c4.5,0,8.3,1.6,11.5,4.7
				C791.2,1258.4,792.8,1262.3,792.8,1266.9z"/>
			<path class="st2" d="M908.1,1137c19.2,0,35.7,3.9,49.5,11.7c13.8,7.8,24.2,18.9,31.3,33.2c7.1,14.4,10.6,31.2,10.6,50.6
				c0,14.3-1.9,27.3-5.8,39c-3.9,11.7-9.7,21.9-17.4,30.5c-7.8,8.6-17.3,15.2-28.6,19.7c-11.3,4.5-24.2,6.8-38.8,6.8
				c-14.5,0-27.5-2.3-38.9-7c-11.5-4.7-21-11.3-28.7-19.8c-7.7-8.5-13.5-18.7-17.4-30.7c-3.9-12-5.9-24.9-5.9-38.8
				c0-14.2,2-27.3,6.1-39.2c4.1-11.9,10-22,17.8-30.3c7.7-8.3,17.2-14.7,28.3-19.1C881.3,1139.2,893.9,1137,908.1,1137z
				 M961.4,1232.3c0-13.6-2.2-25.3-6.6-35.3c-4.4-9.9-10.6-17.5-18.8-22.6c-8.1-5.1-17.5-7.6-28-7.6c-7.5,0-14.4,1.4-20.8,4.2
				c-6.4,2.8-11.8,6.9-16.4,12.3c-4.6,5.4-8.2,12.3-10.9,20.7c-2.7,8.4-4,17.8-4,28.2c0,10.5,1.3,20.1,4,28.6
				c2.7,8.5,6.4,15.6,11.2,21.2c4.8,5.6,10.4,9.8,16.7,12.6c6.3,2.8,13.2,4.2,20.7,4.2c9.6,0,18.4-2.4,26.5-7.2
				c8-4.8,14.4-12.2,19.2-22.2C959,1259.3,961.4,1246.9,961.4,1232.3z"/>
			<path class="st2" d="M1080.4,1159.5l72.2,109.2v-110.2c0-7.2,1.5-12.5,4.6-16.1c3.1-3.6,7.2-5.4,12.4-5.4c5.4,0,9.6,1.8,12.8,5.4
				c3.1,3.6,4.7,9,4.7,16.1v145.7c0,16.3-6.7,24.4-20.2,24.4c-3.4,0-6.4-0.5-9.1-1.5c-2.7-1-5.2-2.5-7.6-4.6
				c-2.4-2.1-4.5-4.6-6.6-7.4c-2-2.8-4-5.7-6.1-8.7l-70.4-107.9v108.5c0,7.1-1.6,12.4-4.9,16c-3.3,3.6-7.5,5.4-12.6,5.4
				c-5.3,0-9.6-1.8-12.8-5.5c-3.2-3.7-4.8-9-4.8-16v-142.9c0-6.1,0.7-10.8,2-14.3c1.6-3.8,4.3-6.9,8-9.3c3.7-2.4,7.7-3.6,12-3.6
				c3.4,0,6.3,0.5,8.7,1.6c2.4,1.1,4.5,2.6,6.3,4.4c1.8,1.9,3.7,4.3,5.6,7.2C1076.5,1153.2,1078.4,1156.3,1080.4,1159.5z"/>
			<path class="st2" d="M1251.4,1140.1h48.9c12.7,0,23.6,1.2,32.7,3.5c9.1,2.4,17.4,6.8,24.8,13.3c19.3,16.5,28.9,41.6,28.9,75.3
				c0,11.1-1,21.3-2.9,30.5c-1.9,9.2-4.9,17.5-9,24.8c-4,7.4-9.2,14-15.5,19.8c-5,4.5-10.4,8-16.3,10.7c-5.9,2.7-12.2,4.6-19,5.7
				c-6.8,1.1-14.4,1.6-22.9,1.6h-48.9c-6.8,0-12-1-15.4-3.1c-3.5-2.1-5.7-5-6.8-8.7c-1.1-3.7-1.6-8.6-1.6-14.6v-135.8
				c0-8.1,1.8-13.9,5.4-17.6C1237.5,1142,1243.3,1140.1,1251.4,1140.1z M1265.9,1169.8v125.7h28.4c6.2,0,11.1-0.2,14.7-0.5
				c3.5-0.3,7.2-1.2,11-2.5c3.8-1.3,7.1-3.2,9.9-5.7c12.6-10.6,18.8-28.9,18.8-54.8c0-18.3-2.8-32-8.3-41.1
				c-5.5-9.1-12.3-14.9-20.4-17.4c-8.1-2.5-17.9-3.7-29.3-3.7H1265.9z"/>
			<path class="st2" d="M1560.5,1269.8c0,11.2-2.9,21.3-8.7,30.2c-5.8,8.9-14.2,15.9-25.3,21c-11.1,5.1-24.3,7.6-39.6,7.6
				c-18.3,0-33.4-3.5-45.2-10.4c-8.4-5-15.3-11.6-20.5-19.9c-5.3-8.3-7.9-16.4-7.9-24.2c0-4.5,1.6-8.4,4.7-11.7
				c3.2-3.2,7.2-4.9,12.1-4.9c4,0,7.3,1.3,10,3.8c2.7,2.5,5.1,6.3,7,11.2c2.4,5.9,4.9,10.8,7.6,14.8c2.7,4,6.6,7.2,11.6,9.8
				c5,2.6,11.5,3.9,19.6,3.9c11.1,0,20.2-2.6,27.1-7.8s10.4-11.6,10.4-19.4c0-6.1-1.9-11.1-5.6-15c-3.7-3.8-8.6-6.8-14.5-8.8
				c-5.9-2-13.9-4.2-23.8-6.4c-13.3-3.1-24.5-6.8-33.4-10.9c-9-4.2-16.1-9.9-21.4-17.1c-5.3-7.2-7.9-16.2-7.9-26.9
				c0-10.2,2.8-19.2,8.3-27.2c5.6-7.9,13.6-14,24.1-18.3c10.5-4.3,22.9-6.4,37.2-6.4c11.4,0,21.2,1.4,29.5,4.2
				c8.3,2.8,15.2,6.6,20.7,11.2c5.5,4.7,9.5,9.6,12,14.7c2.5,5.1,3.8,10.2,3.8,15c0,4.5-1.6,8.5-4.7,12.1c-3.2,3.6-7.1,5.4-11.8,5.4
				c-4.3,0-7.6-1.1-9.8-3.2c-2.2-2.1-4.7-5.7-7.3-10.6c-3.4-7-7.4-12.4-12.1-16.4c-4.7-3.9-12.3-5.9-22.7-5.9
				c-9.7,0-17.5,2.1-23.4,6.4c-5.9,4.3-8.9,9.4-8.9,15.4c0,3.7,1,6.9,3,9.6c2,2.7,4.8,5,8.3,7c3.5,1.9,7.1,3.5,10.7,4.5
				c3.6,1.1,9.6,2.7,17.9,4.8c10.4,2.4,19.9,5.1,28.4,8.1c8.5,3,15.7,6.5,21.6,10.7c5.9,4.2,10.6,9.5,13.9,16
				C1558.8,1252.6,1560.5,1260.4,1560.5,1269.8z"/>
			<path class="st2" d="M1673.9,1137c19.2,0,35.7,3.9,49.5,11.7c13.8,7.8,24.2,18.9,31.3,33.2c7.1,14.4,10.6,31.2,10.6,50.6
				c0,14.3-1.9,27.3-5.8,39c-3.9,11.7-9.7,21.9-17.4,30.5c-7.8,8.6-17.3,15.2-28.6,19.7c-11.3,4.5-24.2,6.8-38.8,6.8
				c-14.5,0-27.5-2.3-38.9-7c-11.5-4.7-21-11.3-28.7-19.8c-7.7-8.5-13.5-18.7-17.4-30.7c-3.9-12-5.9-24.9-5.9-38.8
				c0-14.2,2-27.3,6.1-39.2c4.1-11.9,10-22,17.8-30.3c7.7-8.3,17.2-14.7,28.3-19.1C1647.1,1139.2,1659.7,1137,1673.9,1137z
				 M1727.2,1232.3c0-13.6-2.2-25.3-6.6-35.3c-4.4-9.9-10.6-17.5-18.8-22.6c-8.1-5.1-17.5-7.6-28-7.6c-7.5,0-14.4,1.4-20.8,4.2
				c-6.4,2.8-11.8,6.9-16.4,12.3c-4.6,5.4-8.2,12.3-10.9,20.7c-2.7,8.4-4,17.8-4,28.2c0,10.5,1.3,20.1,4,28.6
				c2.7,8.5,6.4,15.6,11.2,21.2c4.8,5.6,10.4,9.8,16.7,12.6c6.3,2.8,13.2,4.2,20.7,4.2c9.6,0,18.4-2.4,26.5-7.2
				c8-4.8,14.4-12.2,19.2-22.2C1724.8,1259.3,1727.2,1246.9,1727.2,1232.3z"/>
			<path class="st2" d="M1797.6,1248.8v-89.1c0-7.6,1.7-13.3,5.1-17.1c3.4-3.8,7.9-5.7,13.5-5.7c5.8,0,10.4,1.9,13.8,5.7
				c3.4,3.8,5.1,9.5,5.1,17.1v91.1c0,10.4,1.2,19,3.5,26c2.3,7,6.4,12.3,12.3,16.2c5.9,3.8,14.2,5.7,24.8,5.7
				c14.7,0,25-3.9,31.1-11.7c6.1-7.8,9.1-19.6,9.1-35.4v-91.9c0-7.7,1.7-13.4,5.1-17.1c3.4-3.7,7.9-5.6,13.5-5.6
				c5.6,0,10.2,1.9,13.7,5.6c3.5,3.7,5.2,9.5,5.2,17.1v89.1c0,14.5-1.4,26.6-4.2,36.3c-2.8,9.7-8.2,18.2-16,25.5
				c-6.7,6.2-14.6,10.8-23.5,13.6c-8.9,2.9-19.4,4.3-31.3,4.3c-14.2,0-26.5-1.5-36.8-4.6c-10.3-3.1-18.7-7.8-25.1-14.3
				c-6.5-6.4-11.2-14.7-14.3-24.8C1799.1,1274.8,1797.6,1262.8,1797.6,1248.8z"/>
			<path class="st2" d="M2042.8,1159.5l72.2,109.2v-110.2c0-7.2,1.5-12.5,4.6-16.1c3.1-3.6,7.2-5.4,12.4-5.4c5.4,0,9.6,1.8,12.8,5.4
				c3.1,3.6,4.7,9,4.7,16.1v145.7c0,16.3-6.7,24.4-20.2,24.4c-3.4,0-6.4-0.5-9.1-1.5c-2.7-1-5.2-2.5-7.6-4.6
				c-2.4-2.1-4.5-4.6-6.6-7.4c-2-2.8-4-5.7-6.1-8.7l-70.4-107.9v108.5c0,7.1-1.6,12.4-4.9,16c-3.3,3.6-7.5,5.4-12.6,5.4
				c-5.3,0-9.6-1.8-12.8-5.5c-3.2-3.7-4.8-9-4.8-16v-142.9c0-6.1,0.7-10.8,2-14.3c1.6-3.8,4.3-6.9,8-9.3c3.7-2.4,7.7-3.6,12-3.6
				c3.4,0,6.3,0.5,8.7,1.6c2.4,1.1,4.5,2.6,6.3,4.4c1.8,1.9,3.7,4.3,5.6,7.2C2038.9,1153.2,2040.8,1156.3,2042.8,1159.5z"/>
			<path class="st2" d="M2213.8,1140.1h48.9c12.7,0,23.6,1.2,32.7,3.5c9.1,2.4,17.4,6.8,24.8,13.3c19.3,16.5,28.9,41.6,28.9,75.3
				c0,11.1-1,21.3-2.9,30.5c-1.9,9.2-4.9,17.5-9,24.8c-4,7.4-9.2,14-15.5,19.8c-5,4.5-10.4,8-16.3,10.7c-5.9,2.7-12.2,4.6-19,5.7
				c-6.8,1.1-14.4,1.6-22.9,1.6h-48.9c-6.8,0-12-1-15.4-3.1c-3.5-2.1-5.7-5-6.8-8.7c-1.1-3.7-1.6-8.6-1.6-14.6v-135.8
				c0-8.1,1.8-13.9,5.4-17.6C2199.9,1142,2205.7,1140.1,2213.8,1140.1z M2228.3,1169.8v125.7h28.4c6.2,0,11.1-0.2,14.7-0.5
				c3.5-0.3,7.2-1.2,11-2.5c3.8-1.3,7.1-3.2,9.9-5.7c12.6-10.6,18.8-28.9,18.8-54.8c0-18.3-2.8-32-8.3-41.1
				c-5.5-9.1-12.3-14.9-20.4-17.4c-8.1-2.5-17.9-3.7-29.3-3.7H2228.3z"/>
		</g>
	</g>
</g>
</svg>
